<svg xmlns="http://www.w3.org/2000/svg" viewBox="0 0 50 50"><title>AlertRounded</title><path d="M25,2A23,23,0,1,0,48,25,23,23,0,0,0,25,2ZM23.49,13.07a.34.34,0,0,1,.36-.36h2.3a.34.34,0,0,1,.36.36V29.53a.35.35,0,0,1-.36.36h-2.3a.35.35,0,0,1-.36-.36Zm3.09,23.67a.33.33,0,0,1-.36.35H23.78a.34.34,0,0,1-.36-.35V34.12a.34.34,0,0,1,.36-.36h2.44a.34.34,0,0,1,.36.36Z" fill="none"/><path d="M25,0A25,25,0,1,0,50,25,25,25,0,0,0,25,0Zm0,48A23,23,0,1,1,48,25,23,23,0,0,1,25,48Z" fill="#004461"/><rect x="23.42" y="33.76" width="3.16" height="3.34" rx="0.36" fill="#004461"/><rect x="23.49" y="12.71" width="3.01" height="17.18" rx="0.36" fill="#004461"/></svg>