<?xml version="1.0" encoding="UTF-8"?>
<svg xmlns="http://www.w3.org/2000/svg" viewBox="0 0 50 50">
<path d="M13.89,32.5H46.11a3,3,0,0,0,2.89-3V9.5a3,3,0,0,0-2.89-3H36V5.42A3,3,0,0,0,33,2.5H27a3,3,0,0,0-3,2.92V6.5H13.89A3,3,0,0,0,11,9.5v20A3,3,0,0,0,13.89,32.5ZM26,5.42a1,1,0,0,1,1-.92h6a1,1,0,0,1,1,.92V6.5H26ZM13,9.5a1,1,0,0,1,.89-1H46.11a1,1,0,0,1,.89,1v20a1,1,0,0,1-.89,1H13.89a1,1,0,0,1-.89-1Z"
fill="black"/>
<path d="M39,42.5a5,5,0,1,0,5-5A5,5,0,0,0,39,42.5Zm5-3a3,3,0,1,1-3,3A3,3,0,0,1,44,39.5Z"
fill="black"/>
<path d="M8,42.5a5,5,0,1,0,5-5A5,5,0,0,0,8,42.5Zm5-3a3,3,0,1,1-3,3A3,3,0,0,1,13,39.5Z"
fill="black"/>
<path d="M49,35.5H12.5C9.35,35.5,8,34,8,30.5v-20a4.88,4.88,0,0,0-5.08-5H1a1,1,0,0,0,0,2H2.92A2.89,2.89,0,0,1,6,10.5v20c0,4.65,2.19,7,6.5,7H49a1,1,0,0,0,0-2Z"
fill="black"/>
</svg>

