<?xml version="1.0" encoding="UTF-8"?>
<svg xmlns="http://www.w3.org/2000/svg" viewBox="0 0 50 50">
    <path
        d="M45,45.3a8.84,8.84,0,0,0-2.4-5.8,17,17,0,0,0-4.7-3c-1.7-.7-3.3-1.3-4.6-1.9a4.24,4.24,0,0,1-2.3-2,21.75,21.75,0,0,1-.1-2.5,3,3,0,0,1,.5-1.5h0l.1-.1a.76.76,0,0,0,.2-.5A10.83,10.83,0,0,0,33,24.3c.3-.2.7-.2.9-.5a4.87,4.87,0,0,0,.9-2.8,3,3,0,0,0-.7-2.4,19,19,0,0,0,.9-6.8,8.61,8.61,0,0,0-1.3-4.1,6,6,0,0,0-3.6-2.2c-1.1-1.4-3-2-5.2-2h0c-4.7.1-7.7,2-8.9,4.9s-1,6.3-.1,10a3.39,3.39,0,0,0-.8,2.5h0a5.66,5.66,0,0,0,1,2.7c.2.3.5.3.8.5a10.19,10.19,0,0,0,1.4,3.7.76.76,0,0,0,.2.4.35.35,0,0,1,.1.2,3.45,3.45,0,0,1,.5,1.8,17.7,17.7,0,0,1-.1,2.3,4,4,0,0,1-2.2,2c-1.3.6-2.9,1.2-4.6,1.9a13,13,0,0,0-4.7,3A8.9,8.9,0,0,0,5,45.2l-.1,1.1H45.1ZM18.8,23.6l-.1-.9h-.8l-.2-.2a4.35,4.35,0,0,1-.6-1.7h0a1.53,1.53,0,0,1,.4-1.1l.6-.4-.2-.7c-.9-3.6-1.1-6.9-.1-9.2s2.9-3.6,7.1-3.8h0c2,0,3.3.6,3.7,1.3l.2.4.5.1A3.62,3.62,0,0,1,32,8.9,6,6,0,0,1,33,12a16.74,16.74,0,0,1-1,6.5l-.3.8.8.4a1.94,1.94,0,0,1,.3,1.1h0a3.37,3.37,0,0,1-.5,1.7c-.2.2-.3.2-.2.2h-.9l-.1.9a10.72,10.72,0,0,1-1.4,3.8h0c-.1.1-.1.2-.2.3l-1.2,1.2A5.55,5.55,0,0,1,25,30.4a5.16,5.16,0,0,1-3.3-1.6,19.62,19.62,0,0,1-1.5-1.5h0A10.19,10.19,0,0,1,18.8,23.6ZM29,33.2a3.46,3.46,0,0,0,.7,1.2v.1a3.61,3.61,0,0,1-.9,1.4,4.91,4.91,0,0,1-3.7,1.4,5.18,5.18,0,0,1-3.8-1.5,5,5,0,0,1-1-1.4,7.46,7.46,0,0,0,.7-1.2V33a15.48,15.48,0,0,0,.1-2.1A6.7,6.7,0,0,0,25,32.4,6.73,6.73,0,0,0,28.8,31a14.8,14.8,0,0,0,.1,2v.1ZM7.2,44.3a6.75,6.75,0,0,1,1.6-3.4,12.22,12.22,0,0,1,4.1-2.5,47.28,47.28,0,0,0,4.7-2c.4-.2.7-.4,1.1-.6a6,6,0,0,0,1.1,1.4A6.82,6.82,0,0,0,25,39.3a6.82,6.82,0,0,0,5.2-2.1,9.18,9.18,0,0,0,1.1-1.5c.4.2.7.4,1.1.6,1.5.7,3.1,1.3,4.7,2a12.87,12.87,0,0,1,4.1,2.5,6.36,6.36,0,0,1,1.6,3.4H7.2Z"
        fill="#000"
    />
</svg>