<?xml version="1.0" encoding="UTF-8"?>
<svg xmlns="http://www.w3.org/2000/svg" viewBox="0 0 50 50">
    <path
        d="M36,50a1.42,1.42,0,0,1-.6-.2A.91.91,0,0,1,35,49V48c-.2-2.5-2.1-3.3-4.2-4.2-1.6-.6-3.2-1.3-3.8-2.8,0-.1-.1-.2-.1-.3a14.8,14.8,0,0,1-.1-2v-.5a1.05,1.05,0,0,1,.5-.9,5.6,5.6,0,0,0,.8-2.1,1.06,1.06,0,0,1,.8-.9c.1-.1.2-.3.2-.8v-.3a1,1,0,0,1-.4-1.1c.4-1.2.9-3.8.1-5.2a1.84,1.84,0,0,0-1.4-.8.75.75,0,0,1-.7-.5c-.1-.3-.7-.6-1.8-.6a4.52,4.52,0,0,0-3.5,1.3c-.9,1.1-1,3.1-.3,5.8a1.11,1.11,0,0,1-.4,1.1v.3c.1.5.2.7.2.8a1,1,0,0,1,.8.9,5.14,5.14,0,0,0,.9,2.2,1,1,0,0,1,.5.8v.5a14.8,14.8,0,0,1-.1,2,.37.37,0,0,1-.1.3c-.6,1.5-2.2,2.2-3.8,2.8-2.1.9-4.1,1.7-4.3,4.2v.9a.91.91,0,0,1-.4.8,1,1,0,0,1-.9.2C1.7,47,.1,39.5,0,39.2V28c.2-3.6,2.6-4.7,4.4-5.6a4,4,0,0,0,2-1.4V19.4A5.91,5.91,0,0,1,5.3,17a2.74,2.74,0,0,1-1-2.1,2.39,2.39,0,0,1,.3-1.5c-.3-1.3-.9-4,.3-5.8A3.19,3.19,0,0,1,7,6a4,4,0,0,1,3.1-1,5.5,5.5,0,0,1,4.7,2c1.1,1.5,1.3,3.6.7,6.4a2.39,2.39,0,0,1,.3,1.5A2.49,2.49,0,0,1,14.7,17a5.91,5.91,0,0,1-1.1,2.4V21c.1.3.4.5.8.7.9-2.5,3.1-3.6,4.8-4.3,1-.5,1.8-.8,2.1-1.4V14.4A5.91,5.91,0,0,1,20.2,12a3.12,3.12,0,0,1-1.1-2.1,2.39,2.39,0,0,1,.3-1.5c-.6-2.8-.4-4.9.7-6.4a5.62,5.62,0,0,1,4.7-2,4.15,4.15,0,0,1,3.1,1,3.31,3.31,0,0,1,2.2,1.6c1.1,1.8.6,4.6.3,5.8a2.39,2.39,0,0,1,.3,1.5,2.74,2.74,0,0,1-1,2.1,5.91,5.91,0,0,1-1.1,2.4V16a5.38,5.38,0,0,0,2.1,1.4c1.7.8,3.8,1.8,4.8,4.3.4-.2.7-.4.8-.7V19.4A5.91,5.91,0,0,1,35.2,17a3.12,3.12,0,0,1-1.1-2.1,2.39,2.39,0,0,1,.3-1.5c-.6-2.8-.4-5,.7-6.4a5.62,5.62,0,0,1,4.7-2h0a4.6,4.6,0,0,1,3.1,1,3.31,3.31,0,0,1,2.2,1.6c1.1,1.8.6,4.6.3,5.8a2.39,2.39,0,0,1,.3,1.5,2.74,2.74,0,0,1-1,2.1,5.91,5.91,0,0,1-1.1,2.4V21a4,4,0,0,0,2,1.4c1.7.8,4.1,2,4.4,5.5V39.2c-.1.3-1.7,7.8-13.7,10.8ZM2,38.9c.2.8,1.9,6.1,11,8.8.4-3.7,3.3-4.8,5.5-5.7,1.2-.5,2.3-.9,2.6-1.6V38.6A7.07,7.07,0,0,1,19.8,36a2.62,2.62,0,0,1-1.1-2.3,2.56,2.56,0,0,1,.3-1.6c-.7-3-.4-5.4.7-6.9s2.7-2.1,5-2.1h0A4.52,4.52,0,0,1,28,24.2a3.51,3.51,0,0,1,2.4,1.7c1.2,2,.6,5,.3,6.3a2.56,2.56,0,0,1,.3,1.6,3.75,3.75,0,0,1-1.1,2.3,6.93,6.93,0,0,1-1.2,2.6v1.8c.3.6,1.4,1.1,2.6,1.6,2.2.9,5.1,2.1,5.5,5.7,9.1-2.6,10.8-8,11-8.8V28c-.1-2.3-1.6-3-3.2-3.8-1.2-.6-2.5-1.2-3-2.6,0-.1-.1-.2-.1-.3a12.75,12.75,0,0,1-.1-1.9v-.5a.89.89,0,0,1,.5-.8,4.27,4.27,0,0,0,.8-1.9,1.06,1.06,0,0,1,.8-.9c0-.1.1-.3.2-.7v-.2a1,1,0,0,1-.4-1.1c.4-1.1.9-3.5.1-4.7a1.52,1.52,0,0,0-1.2-.7.75.75,0,0,1-.7-.5c-.1-.2-.6-.4-1.6-.4a3.59,3.59,0,0,0-3.1,1.2c-.8,1-.9,2.8-.2,5.2a1.19,1.19,0,0,1-.4,1.1v.2a1,1,0,0,0,.2.7,1.08,1.08,0,0,1,.8.9,3.78,3.78,0,0,0,.8,1.9,1,1,0,0,1,.5.8v.5a13.43,13.43,0,0,1-.1,1.9.37.37,0,0,1-.1.3c-.5,1.3-1.8,1.9-3,2.4a1,1,0,0,1-.9-.1c-.3-.1-.4-.4-.5-.7-.4-2.4-2.1-3.2-4-4.1-1.3-.6-2.7-1.2-3.2-2.6,0-.1-.1-.2-.1-.3a12.75,12.75,0,0,1-.1-1.9v-.5a.89.89,0,0,1,.5-.8,4.27,4.27,0,0,0,.8-1.9,1.06,1.06,0,0,1,.8-.9c0-.1.1-.3.2-.7V9.4a1,1,0,0,1-.4-1.1c.4-1.1.9-3.5.1-4.7a1.52,1.52,0,0,0-1.2-.7.75.75,0,0,1-.7-.5A2.68,2.68,0,0,0,24.9,2a3.59,3.59,0,0,0-3.1,1.2c-.8,1-.8,2.8-.2,5.2a1.19,1.19,0,0,1-.4,1.1v.2a1,1,0,0,0,.2.7,1.08,1.08,0,0,1,.8.9,3.78,3.78,0,0,0,.8,1.9,1,1,0,0,1,.5.8v.5a13.43,13.43,0,0,1-.1,1.9.37.37,0,0,1-.1.3c-.5,1.4-1.9,2-3.2,2.6-1.8.8-3.6,1.6-4,4.1-.1.3-.2.6-.5.7a1.41,1.41,0,0,1-.9.1c-1.2-.5-2.5-1.1-3-2.4,0-.1-.1-.2-.1-.3a12.75,12.75,0,0,1-.1-1.9v-.5a1.05,1.05,0,0,1,.5-.9,5.36,5.36,0,0,0,.7-1.9,1.06,1.06,0,0,1,.8-.9c0-.1.1-.3.2-.7v-.2a.82.82,0,0,1-.4-1c.7-2.5.7-4.3-.1-5.3A3.81,3.81,0,0,0,10,7c-.9,0-1.4.2-1.6.5a.84.84,0,0,1-.7.4,1.55,1.55,0,0,0-1.2.8c-.7,1.2-.3,3.6.1,4.7a1,1,0,0,1-.4,1.1h0v.2a1,1,0,0,0,.2.7,1.08,1.08,0,0,1,.8.9A4.27,4.27,0,0,0,8,18.2a1,1,0,0,1,.5.8v.5a13.43,13.43,0,0,1-.1,1.9.37.37,0,0,1-.1.3c-.5,1.4-1.8,2-3,2.6C3.6,25,2.1,25.7,2,28.1ZM49,39ZM20.9,34.3Zm8.2,0ZM42.2,18.1Zm-34.4,0Zm19.4-5Z"
        fill="#000"
    />
</svg>