<?xml version="1.0" encoding="UTF-8"?>
<svg xmlns="http://www.w3.org/2000/svg" viewBox="0 0 50 50">
    <path
        d="M37.9,40.7H50l-.1-1c-.3-5.1-4.3-6.7-7.6-8-1.8-.7-3.5-1.4-4-2.5a20.9,20.9,0,0,1-.1-2.5v-.3A8.42,8.42,0,0,0,40,22.6c.6-.3,1.3-1.1,1.5-2.9a2.77,2.77,0,0,0-.5-2.1c.5-1.7,1.4-5.9-.3-8.6a4.63,4.63,0,0,0-3.2-2.2c-.8-1-2.3-1.5-4.4-1.5A8.79,8.79,0,0,0,28,6.7a6.79,6.79,0,0,0-4.5-1.5h0a6.82,6.82,0,0,0-4-1.1h0C8.6,4.9,8.3,15,8.2,21.8c-.1,2.7-.1,5.3-.8,6.3l-.6.1.1.7-.2.6.3.2c.7,1.6,3.8,2.4,6.8,2.8v.1c-.6,1.4-2.6,2.2-4.9,3.1C5.1,37.2.3,39.1,0,45v1H39.2l-.1-1A7.82,7.82,0,0,0,37.9,40.7ZM33.2,7.2c1.5,0,2.6.4,2.9,1l.2.4.5.1a2.82,2.82,0,0,1,2.3,1.4c1.2,2,.5,5.7-.1,7.6l-.2.7.6.4s.3.2.2.8a3,3,0,0,1-.5,1.5l-.8-.1-.1.8a9.09,9.09,0,0,1-1.3,3.3l-.5.3v1.4c0,.9,0,1.7.1,2.8l.1.3c.7,2,2.9,2.8,5.2,3.7,2.7,1.1,5.5,2.2,6.2,5.2H36.7a.6.6,0,0,0-.4.1,20.45,20.45,0,0,0-6-3.2c-2.3-1-4.3-1.7-4.9-3.1v-.1c3.5-.4,7.2-1.4,7.2-3.5v-.8l-.4-.1c-.7-.8-.7-4.1-.7-7,0-4.6,0-9.8-2.1-13A10.11,10.11,0,0,1,33.2,7.2ZM2.1,44c.7-3.9,4.2-5.2,7.6-6.6,2.7-1.1,5.2-2,6.1-4.3l.1-.3a7.17,7.17,0,0,0,.1-1.3v-.9H15c-3.7-.4-5.5-1.1-6-1.5,1-1.5,1-4.1,1.1-7.3.2-7.1.3-15.1,9.5-15.8a4.24,4.24,0,0,1,3,.9l.4.2h.4A4.42,4.42,0,0,1,27,8.3c2.5,2.4,2.5,8.2,2.5,12.8,0,3.5,0,6.4,1,7.9-.6.4-2.4,1.2-6.2,1.6l-.9.1v.9a4.89,4.89,0,0,0,.1,1.3l.1.3c.8,2.3,3.4,3.3,6,4.3,3.3,1.3,6.8,2.7,7.5,6.6H2.1Z"
        fill="#000"
    />
</svg>