<?xml version="1.0" encoding="UTF-8"?>
<svg xmlns="http://www.w3.org/2000/svg" viewBox="0 0 50 50"><title>BustBorderRound</title><path d="M49.9,24.9A24.9,24.9,0,1,0,11.4,45.8c.1.1.3.2.4.3a2.19,2.19,0,0,0,.5.3c.2.1.5.3.7.4a.35.35,0,0,1,.2.1c.3.2.6.3.9.5h0A28.79,28.79,0,0,0,25.6,50a19.64,19.64,0,0,0,5.8-1A25,25,0,0,0,49.9,24.9ZM25,2A23,23,0,0,1,47.9,24.9,22.67,22.67,0,0,1,41.3,41a24.78,24.78,0,0,0-5.4-2.7c-2.3-.9-4.4-1.7-5-3.1-.1-1.1-.1-2-.1-3v-.5a9.82,9.82,0,0,0,2.1-4.6c.7-.4,1.6-1.3,1.8-3.4a3.73,3.73,0,0,0-.6-2.5c.6-2,1.8-7.1-.3-10.4a6,6,0,0,0-3.9-2.6C29,7,27.2,6.4,24.7,6.4c-3.7.1-6.3,1.2-8,3.3-1.9,2.5-2.3,6.4-1.1,11.4a3.13,3.13,0,0,0-.6,2.5c.3,2.2,1.1,3.1,1.8,3.4A9.9,9.9,0,0,0,19,31.6v.5c0,1,0,1.9-.1,3-.6,1.4-2.6,2.2-5,3.1a25.47,25.47,0,0,0-5.5,2.7A22.67,22.67,0,0,1,1.8,24.8,23.4,23.4,0,0,1,25,2Zm0,45.8a22.86,22.86,0,0,1-8.7-1.7c-.1,0-.2-.1-.3-.1-.3-.1-.6-.3-.9-.4L13.9,45c-.2-.1-.3-.2-.5-.3a13,13,0,0,1-1.5-1h0c-.5-.4-1.1-.8-1.5-1.2a22.57,22.57,0,0,1,4.7-2.2c2.7-1.1,5.3-2.1,6.2-4.4l.1-.3c.1-1.3.1-2.3.1-3.4V30.7l-.5-.3a8.26,8.26,0,0,1-1.8-4.1l-.1-.8L18,25.3c-.1,0-.6-.4-.8-1.9a1.16,1.16,0,0,1,.3-1.1l.6-.4-.2-.7c-1.2-4.7-1-8.2.6-10.3,1.2-1.6,3.4-2.5,6.4-2.5,1.9,0,3.3.5,3.7,1.2l.2.4.5.1a4.1,4.1,0,0,1,2.9,1.7c1.5,2.5.6,7-.1,9.3l-.2.7.6.4a1.16,1.16,0,0,1,.3,1.1c-.2,1.6-.7,1.9-.8,1.9l-.8.1-.1.8a8.38,8.38,0,0,1-1.7,4.1l-.5.3V32c0,1.1,0,2.1.1,3.4l.1.3c.9,2.3,3.4,3.3,6.1,4.4a25.25,25.25,0,0,1,4.7,2.2,30.64,30.64,0,0,1-9,4.7A20,20,0,0,1,25,47.8Z" fill="#004461"/></svg>