<svg xmlns="http://www.w3.org/2000/svg" viewBox="0 0 50 50"><title>BookOpenSignPlus</title><path d="M38,46.9a12,12,0,1,1,12-12A12,12,0,0,1,38,46.9Zm0-22a10,10,0,1,0,10,10A10,10,0,0,0,38,24.9Z" fill="#004461"/><rect x="37" y="28.9" width="2" height="12" fill="#004461"/><rect x="32" y="33.9" width="12" height="2" fill="#004461"/><path d="M27.3,40.4H25.5a4.38,4.38,0,0,0-2.5.8V7.6a2.48,2.48,0,0,1,2.5-2.5h14A2.48,2.48,0,0,1,42,7.6V23.7a12.15,12.15,0,0,1,2,.9V7.6a4.48,4.48,0,0,0-4.5-4.5h-14A4.56,4.56,0,0,0,22,4.8a4.56,4.56,0,0,0-3.5-1.7H4.5A4.48,4.48,0,0,0,0,7.6V38a4.48,4.48,0,0,0,4.5,4.5h14A2.48,2.48,0,0,1,21,45a1,1,0,0,0,2,0,2.48,2.48,0,0,1,2.5-2.5h3.1A23.92,23.92,0,0,1,27.3,40.4Zm-6.3.8a4.38,4.38,0,0,0-2.5-.8H4.5A2.48,2.48,0,0,1,2,37.9V7.6A2.48,2.48,0,0,1,4.5,5.1h14A2.48,2.48,0,0,1,21,7.6Z" fill="#004461"/></svg>