<?xml version="1.0" encoding="UTF-8"?>
<svg xmlns="http://www.w3.org/2000/svg" viewBox="0 0 50 50">
    <path
        d="M48,4H41V2a2,2,0,0,0-2-2H37a2,2,0,0,0-2,2V4H17V2a2,2,0,0,0-2-2H13a2,2,0,0,0-2,2V4H4A2,2,0,0,0,2,6V26a.94.94,0,0,0,1,1,.94.94,0,0,0,1-1V16H48V48H4V36a.94.94,0,0,0-1-1,.94.94,0,0,0-1,1V48a2,2,0,0,0,2,2H48a2,2,0,0,0,2-2V6A2,2,0,0,0,48,4ZM37,2h2V8H37V2ZM13,2h2V8H13V5h0V2ZM4,14V6h7V8a2,2,0,0,0,2,2h2a2,2,0,0,0,2-2V6H35V8a2,2,0,0,0,2,2h2a2,2,0,0,0,2-2V6h7v8Z"
        fill="#000"
    />
    <path
        d="M15.3,37.2a1,1,0,0,0,0,1.4,1,1,0,0,0,1.4,0L24.3,31l-7.6-7.6a1,1,0,0,0-1.4,1.4L20.5,30H1a1,1,0,0,0,0,2H20.5Z"
        fill="#000"
    />
</svg>