<?xml version="1.0" encoding="UTF-8"?>
<svg xmlns="http://www.w3.org/2000/svg" viewBox="0 0 50 50">
    <path
        d="M46.6,37.9a.94.94,0,0,0-1,1,9.2,9.2,0,1,1-3-6.7H40.2a1,1,0,0,0,0,2h6.2V28a1,1,0,0,0-2,0v3.1a11.18,11.18,0,1,0,3.1,7.8A.86.86,0,0,0,46.6,37.9Z"
        fill="#000"
    />
    <path
        d="M23.9,46.9H4.5V2H22.9V16.3H37.2v8.2a1,1,0,0,0,2,0V14.9L24.3,0H2.5V49H23.9a.94.94,0,0,0,1-1A1.1,1.1,0,0,0,23.9,46.9Zm1-43.4L35.7,14.3H24.9Z"
        fill="#000"
    />
    <rect
        x="9.1"
        y="18.2"
        width="11.2"
        height="2"
        fill="#000"
    />
    <rect
        x="9.1"
        y="23.3"
        width="20.4"
        height="2"
        fill="#000"
    />
    <rect
        x="9.1"
        y="28.4"
        width="14.3"
        height="2"
        fill="#000"
    />
    <rect
        x="9.1"
        y="33.5"
        width="14.3"
        height="2"
        fill="#000"
    />
    <rect
        x="9.1"
        y="38.6"
        width="14.3"
        height="2"
        fill="#000"
    />
</svg>