<?xml version="1.0" encoding="UTF-8"?>
<svg xmlns="http://www.w3.org/2000/svg" viewBox="0 0 50 50">
   <path d="M48,4H41V2a2,2,0,0,0-2-2H37a2,2,0,0,0-2,2V4H15V2a2,2,0,0,0-2-2H11A2,2,0,0,0,9,2V4H2A2,2,0,0,0,0,6V48a2,2,0,0,0,2,2H48a2,2,0,0,0,2-2V6A2,2,0,0,0,48,4ZM37,2h2V8H37V2ZM11,2h2V8H11V2ZM9,6V8a2,2,0,0,0,2,2h2a2,2,0,0,0,2-2V6H35V8a2,2,0,0,0,2,2h2a2,2,0,0,0,2-2V6h7v8H2V6ZM2,48V16H48V48Z" fill="black"/>
   <path d="M43,21H7a1,1,0,0,0-1,1V43a1,1,0,0,0,1,1H43a1,1,0,0,0,1-1V22A1,1,0,0,0,43,21Zm-1,7H35V23h7ZM26,28V23h7v5Zm-2,0H17V23h7Zm0,9v5H17V37Zm2,0h7v5H26Zm9-7h7v5H35ZM15,23v5H8V23ZM8,37h7v5H8Zm27,5V37h7v5Z" fill="black"/>
</svg>


