<?xml version="1.0" encoding="UTF-8"?>
<svg viewBox="0 0 50 50" version="1.1" xmlns="http://www.w3.org/2000/svg" xmlns:xlink="http://www.w3.org/1999/xlink">
    
        <!-- <path
          d="M34.5,50V30.7H41l1-7.6H34.5V18.3c0-2.2.6-3.7,3.8-3.7h4V7.8a56.33,56.33,0,0,0-5.8-.3c-5.8,0-9.7,3.5-9.7,10v5.6H20.3v7.6h6.5V50Z"
          fill="#000"
        /> -->
        <path
          d="M47.2,0H2.8A2.73,2.73,0,0,0,0,2.8V47.3A2.71,2.71,0,0,0,2.8,50h24V30.7H20.3V23.1h6.5V17.5c0-6.5,3.9-10,9.7-10a56.33,56.33,0,0,1,5.8.3v6.7h-4c-3.1,0-3.8,1.5-3.8,3.7V23H42l-1,7.6H34.4V50H47.2A2.8,2.8,0,0,0,50,47.2h0V2.8A2.73,2.73,0,0,0,47.2,0Z"
          fill="#fff"
        />
</svg>