<?xml version="1.0" encoding="UTF-8"?>
 <svg xmlns="http://www.w3.org/2000/svg" viewBox="0 0 50 50">
<path
d="M25,0A25.09,25.09,0,0,0,.7,19a1.27,1.27,0,0,0-.1.6A25,25,0,0,0,25,50a24.49,24.49,0,0,0,10.8-2.5.52.52,0,0,0,.4-.2A25.18,25.18,0,0,0,49.6,29.4v-.2A29.84,29.84,0,0,0,50,25,24.81,24.81,0,0,0,38.8,4.2a1.38,1.38,0,0,0-.4-.3A24.72,24.72,0,0,0,25,0Zm0,2.2A23,23,0,0,1,36.7,5.4L36,7.2a1.39,1.39,0,0,0,0,.9l.7,1.5-1.6,1.6c-.1.1-.2.2-.2.3l-.1.2-.1-.2a1.1,1.1,0,0,0-1-.6H30.4a1.14,1.14,0,0,0-.8.3l-2.2,2.2-2.2,2.2a1.09,1.09,0,0,0,0,1.5l2.5,2.5h-.6a1.14,1.14,0,0,0-.8.3l-2.2,2.2L22.2,24H20.5a1.11,1.11,0,0,0-1.1,1.1v2.2a1.11,1.11,0,0,0,1.1,1.1h1.4L19,29.6a2.65,2.65,0,0,0-.6.5l-2.2,4.3a1.7,1.7,0,0,0-.1.7l1.1,4.3a1.14,1.14,0,0,0,.7.8l3.3,1.1a.85.85,0,0,0,.7,0l2.8-.9L27,42v3.8a1.14,1.14,0,0,0,.3.8l1.1,1.1a21.86,21.86,0,0,1-3.6.3A22.85,22.85,0,0,1,2.7,20.4l1.7-.7,1.6.8A1.08,1.08,0,0,0,7.5,20a.37.37,0,0,0,.1-.3l1-6.9,1.2-.4V13a1.11,1.11,0,0,0,1.1,1.1.9.9,0,0,0,.5-.1l4.1-2.1h1.9a1.05,1.05,0,0,0,.9-.5l2.2-3.3A1.38,1.38,0,0,0,20.6,7L19.5,4.8A1.14,1.14,0,0,0,18,4.3h0l-.6.3V4.3a1.14,1.14,0,0,0-.3-.8A25.15,25.15,0,0,1,25,2.2ZM13.8,5.4h1.4V6.5a1.11,1.11,0,0,0,1.1,1.1.9.9,0,0,0,.5-.1L18,6.9l.3.6L16.8,9.8H15.2a.9.9,0,0,0-.5.1L12,11.3v-.2h0ZM38.5,6.6A22.91,22.91,0,0,1,47.8,25a9.7,9.7,0,0,1-.1,1.7l-.2-.2a1.14,1.14,0,0,0-.8-.3h-.3l-4.3,1.1a1.08,1.08,0,0,0-.8,1.1v1.1a1.1,1.1,0,0,0,.6,1l1.2.6L41.6,34l-.9.4L38,29.1v-.8a1.11,1.11,0,0,0-1.1-1.1H34.4L34,25.6l4.4-1.8h.2a.1.1,0,0,0,.1-.1,1,1,0,0,0,.2-1.5,1,1,0,0,0-.5-.4l-2-1a1.08,1.08,0,0,0-1.5.5h0L34,23l-2.8,1a1,1,0,0,0-.6.5l-.3.5-1.1-1.7a1,1,0,0,0-1.2-.4l-2.2.7h0l1.9-1.9h2.6a1.09,1.09,0,0,0,1.2-.7l2.1-3.1a1.21,1.21,0,0,0-.1-1.4l-1.1-1.1a1.14,1.14,0,0,0-.8-.3,1.11,1.11,0,0,0-1.1,1.1,1.14,1.14,0,0,0,.3.8l.5.5-.9,1.4-2.6-2.6,1.4-1.4L31.1,13H33l.8,1.5h0v.2h0l.1.1.1.1h0a.1.1,0,0,1,.1.1h1.1c.1,0,.2-.1.3-.1s.1-.1.2-.1a.1.1,0,0,1,.1-.1c0-.1.1-.1.1-.2h0l1-2,2-2a1.19,1.19,0,0,0,.2-1.3l-.9-1.7ZM11,7l-1,3-2.7.9a.76.76,0,0,0-.4.2A26.49,26.49,0,0,1,11,7ZM6.6,11.5a.37.37,0,0,0-.1.3l-.9,6.1-.8-.4a1,1,0,0,0-.9,0l-.6.2A23,23,0,0,1,6.6,11.5Zm15.2,3.7a.6.6,0,0,0-.4.1,1.08,1.08,0,0,0-.7,1.4l.3,1-.1.1-1.1,1.1a1.06,1.06,0,0,0-.2,1.2,1.2,1.2,0,0,0,1,.7h2.2a1.19,1.19,0,0,0,.9-.5.9.9,0,0,0,.1-1l-1-3.3A1.33,1.33,0,0,0,21.8,15.2Zm6,10,1.7,2.6a1.1,1.1,0,0,0,1.5.3.78.78,0,0,0,.4-.4l.6-1.1.7,2.1c0,.1.1.2.2.3l-2.3.4-5.2-2.1a.85.85,0,0,0-.8,0l-.5.2L25.6,26Zm18.6,3.2,1,1.1a22.53,22.53,0,0,1-8.8,13.8L40,40.8l3.3-5.4h0v-.1L45.5,31a1.08,1.08,0,0,0-.5-1.5h0L44,29ZM25,29.4l5,2a1.27,1.27,0,0,0,.6.1l5.7-1,2.9,5.8c.1.3.3.4.6.5l-1.7,2.8h0l-3.4,5.9A23.49,23.49,0,0,1,31,46.9l-1.8-1.8V41.2a1.05,1.05,0,0,0-.5-.9l-3.3-2.2a.82.82,0,0,0-.7,0l-2.9,1-2.4-.8-.8-3.4,1.8-3.6Z"
fill="#000"
/>
</svg>