<?xml version="1.0" encoding="UTF-8"?>
<svg width="50px" height="50px" viewBox="0 0 50 50" version="1.1" xmlns="http://www.w3.org/2000/svg" xmlns:xlink="http://www.w3.org/1999/xlink">
        <path
          d="M43.8,50H6.2A6.23,6.23,0,0,1,0,43.8V6.2A6.23,6.23,0,0,1,6.2,0H43.7A6.25,6.25,0,0,1,50,6.2V43.7A6.25,6.25,0,0,1,43.8,50Z"
          fill="#000"
        />
        <path
          d="M25,11.06c4.56,0,5.1,0,6.87.07a8,8,0,0,1,3.13.61A5.77,5.77,0,0,1,38.26,15a12.31,12.31,0,0,1,.61,3.13c.07,1.77.07,2.31.07,6.87s0,5.1-.07,6.87A8,8,0,0,1,38.26,35,5.77,5.77,0,0,1,35,38.26a12.31,12.31,0,0,1-3.13.61c-1.77.07-2.31.07-6.87.07s-5.1,0-6.87-.07A8,8,0,0,1,15,38.26,5.77,5.77,0,0,1,11.74,35a12.31,12.31,0,0,1-.61-3.13c-.07-1.77-.07-2.31-.07-6.87s0-5.1.07-6.87A8,8,0,0,1,11.74,15,5.77,5.77,0,0,1,15,11.74a12.31,12.31,0,0,1,3.13-.61c1.77-.07,2.31-.07,6.87-.07M25,8c-4.62,0-5.17,0-7,.14a12.61,12.61,0,0,0-4.15.74,9,9,0,0,0-5,5A14.45,14.45,0,0,0,8.07,18C8,19.83,8,20.38,8,25s0,5.17.14,7A10.87,10.87,0,0,0,9,36.15a8.18,8.18,0,0,0,2,3,8.27,8.27,0,0,0,2.93,2,14.45,14.45,0,0,0,4.15.81c1.83.07,2.38.07,7,.07s5.17,0,7-.14a10.87,10.87,0,0,0,4.15-.81,8.18,8.18,0,0,0,3-2,9.2,9.2,0,0,0,2-3,14.37,14.37,0,0,0,.81-4.14C42,30.17,42,29.62,42,25s0-5.17-.14-7a10.87,10.87,0,0,0-.81-4.15,8.18,8.18,0,0,0-2-3,8.27,8.27,0,0,0-2.93-2A14.45,14.45,0,0,0,32,8.07C30.17,8,29.62,8,25,8Z"
          fill="#fff"
        />
        <path
          d="M25,16.3A8.7,8.7,0,1,0,33.7,25,8.67,8.67,0,0,0,25,16.3Zm0,14.34A5.64,5.64,0,1,1,30.64,25,5.62,5.62,0,0,1,25,30.64Z"
          fill="#fff"
        />
        <circle cx="34.04" cy="15.96" r="2.04" fill="#fff" />
</svg>