<?xml version="1.0" encoding="UTF-8"?>
<svg xmlns="http://www.w3.org/2000/svg" viewBox="0 0 50 50">
 <path d="M43.27,21.31l-.69.53a5.79,5.79,0,0,1-3.06,1.57,1.84,1.84,0,0,1-.47-.06,2,2,0,0,0-.53-.08c-1.31,0-2.36,1.55-3.36,3.06l-.27.39c-.62.91-1.17,1.36-1.71,1.36s-1-.46-1.45-.91l0,0-.27-.29a9.7,9.7,0,0,0-7.56-3.41c-.39,0-.8,0-1.21.05a30.94,30.94,0,0,1-3.42.21,14.35,14.35,0,0,1-7.55-1.87,39,39,0,0,1-6-4.61,9.46,9.46,0,0,0,5.62,2.14,6.88,6.88,0,0,0,1.75-.22,32.67,32.67,0,0,0,3.57-1.24c2.39-.93,5.1-2,7.72-2a7.86,7.86,0,0,1,5.13,1.79,18.42,18.42,0,0,1,4.3,4.68l.7,1c.08.11.14.21.2.3.2.29.32.46.49.46s.58-.35,1.39-1.19c.13-.15.29-.31.45-.48l.94-.92c2-2,5.14-5.08,6.51-5.08a.58.58,0,0,1,.55.31,2.18,2.18,0,0,1,.13,1.46c0,.32-.08.57,0,.69a.24.24,0,0,0,.19.08,2.11,2.11,0,0,0,.81-.28l1.41-.68c-.62.48-2.8,2.16-4.31,3.25M31.3,35.1c-.41.58-.61.78-.92.78a2.54,2.54,0,0,1-.65-.13l-.46-.12A38.14,38.14,0,0,1,21.07,32a52.71,52.71,0,0,1-7.16-5,55.42,55.42,0,0,1-7-6.92,23.65,23.65,0,0,0,2.74,2.39A14.83,14.83,0,0,0,18.1,25.6h.49c1.42-.06,2.79-.12,3.89-.12,3.62,0,4.7.59,7.38,2.92.3.24.57.48.82.69.78.67,1.34,1.16,1.94,1.16s1.5-.78,2.65-2.69l.34-.5c1-1.6,2-3,3.08-3a1.51,1.51,0,0,1,.5.09,1.67,1.67,0,0,0,.55.09A4.68,4.68,0,0,0,42.36,23c-2.92,2.9-8.8,8.76-11.06,12.08M49.82,15.78l-.09,0a2.39,2.39,0,0,0-.74.56,12.32,12.32,0,0,1-1.47,1.19,2.44,2.44,0,0,1-1.15.51A.34.34,0,0,1,46.1,18c-.18-.2-.13-.62-.09-.92v0c.12-.9.08-1.45-.45-1.9a1.19,1.19,0,0,0-.78-.24,3.83,3.83,0,0,0-2,.7c-.29.19-.8.61-1.06.83-.8.71-2.06,1.9-3.16,3-1.27,1.21-2.06,1.95-2.14,2h0c-.11,0-.22-.19-.44-.58a17.4,17.4,0,0,0-1-1.57,13.06,13.06,0,0,0-10.77-5.86,6.32,6.32,0,0,0-.78,0,16.28,16.28,0,0,0-7,2.19,13.26,13.26,0,0,1-6.32,1.92c-2,0-4.72-1.86-8.11-5.52a.48.48,0,0,0-.38-.22.53.53,0,0,0-.42.28c0,.08-.85,1.91-1.15,2.6A.73.73,0,0,0,.5,15.72l.05,0c1.55.94,2.91,2.74,4.49,4.82a44.31,44.31,0,0,0,7.23,8c10.33,8.35,16.11,9.58,18.12,9.72h.12c.1,0,.27-.25.71-1l.13-.2.47-.75c1.33-2.08,7.73-9.14,10.42-12.08l.12-.12c1.46-1.6,2.84-3,4-4.25l.8-.81.57-.59h0C49.31,16.94,50,16.23,50,16s-.06-.2-.18-.2" fill="black" />
</svg>
