<?xml version="1.0" encoding="UTF-8"?>
<svg xmlns="http://www.w3.org/2000/svg" viewBox="0 0 50 50">
    <path
        d="M49.3,17l-16-5H32V10h1.3l16-5A1.15,1.15,0,0,0,50,3.7c-.1-.6-.7-.8-1.3-.7L34,7.6V6.9c0-1.4-1-2-1.8-2.6L25.6.1a1.08,1.08,0,0,0-1.1,0l-6.4,4-.3.2C17,4.9,16,5.6,16,6.9v.7L1.3,3.1A1,1,0,0,0,0,3.7,1.1,1.1,0,0,0,.7,5l16,5H18v2H16.7L.7,17A1.15,1.15,0,0,0,0,18.3,1.2,1.2,0,0,0,1,19h.3L16,14.4v1A2.59,2.59,0,0,0,18.2,18L11,48.8a.78.78,0,0,0,.2.8,1.23,1.23,0,0,0,.8.4H38a.91.91,0,0,0,.8-.4.83.83,0,0,0,.2-.8L31.8,18A2.68,2.68,0,0,0,34,15.4v-1L48.7,19H49a1.2,1.2,0,0,0,1-.7A1.21,1.21,0,0,0,49.3,17ZM18,6.9q0-.3.9-.9L25,2.2l5.8,3.6.3.2c.8.5.9.7.9.9V8H18ZM20,10H30v2H20ZM32.5,29.7,15.6,38.1l1.3-5.4,14.7-7.3ZM33.9,36,13.7,46,15,40.6l18-8.9Zm1.5,6.2L23.8,48H14.2L34.5,38Zm-18-12,1.3-5.4L30,19.1l1,4.3Zm1.8-8,1-4.2h7.6ZM28.3,48l7.6-3.8.9,3.8ZM32,15.3a.68.68,0,0,1-.7.7H18.7a.68.68,0,0,1-.7-.7V14H32Z"
        fill="#000"
    />
</svg>