<?xml version="1.0" encoding="UTF-8"?>
<svg xmlns="http://www.w3.org/2000/svg" viewBox="0 0 50 50"><title>Logout</title><path d="M4.17,26H33.66a1,1,0,0,0,0-2H4.16l9.24-9.23a1,1,0,0,0,0-1.41,1,1,0,0,0-1.41,0L.35,25,12,36.64a1,1,0,0,0,.7.29,1,1,0,0,0,.71-1.7Z" fill="#004461"/><path d="M46.8,0H20.52a2.85,2.85,0,0,0-2.85,2.84V22h2.07V2.88a.78.78,0,0,1,.78-.77H46.8a.78.78,0,0,1,.78.77V47.12a.78.78,0,0,1-.78.77H20.52a.78.78,0,0,1-.78-.77V28H17.67V47.12A2.85,2.85,0,0,0,20.52,50H46.8a2.85,2.85,0,0,0,2.85-2.84V2.88A2.85,2.85,0,0,0,46.8,0Z" fill="#004461"/></svg>
