<?xml version="1.0" encoding="UTF-8"?>
 <svg xmlns="http://www.w3.org/2000/svg" viewBox="0 0 50 50">
    <path
        d="M41,1.9a1.42,1.42,0,0,0-.6.2,19.79,19.79,0,0,1-4.8,2c-3.5,1.1-9.2,2-17.6,2a1,1,0,0,0-.9.6L2.2,36.5a.91.91,0,0,0,.1,1.2h0l.1.1h.1c.2.3,12,10.3,31.5,10.3a1,1,0,0,0,.9-.6l13-26.6a1.17,1.17,0,0,0,0-1,1,1,0,0,0-.8-.5.87.87,0,0,0-.9.6L33.5,46a53.67,53.67,0,0,1-16.2-2.7,38.11,38.11,0,0,0,12.1-.2,1.28,1.28,0,0,0,.7-.5l16-32.7a.92.92,0,0,0-.1-1,.81.81,0,0,0-.9-.4.76.76,0,0,0-.8.6L28.5,41.3a36.85,36.85,0,0,1-18.4-1.7h.2c4.4.5,9.8.6,14.4-1.6a1.21,1.21,0,0,0,.5-.5L41.9,3.3a1.7,1.7,0,0,0,0-1A1.27,1.27,0,0,0,41,1.9Zm-2.1,3L23.5,36.3c-3.9,1.8-8.9,1.8-13,1.3a45.54,45.54,0,0,1-6.1-1.2L18.6,8.1A69.53,69.53,0,0,0,36.1,6,16.31,16.31,0,0,0,38.9,4.9Z"
        fill="#000"
    />
</svg>