<?xml version="1.0" encoding="UTF-8"?>
<svg xmlns="http://www.w3.org/2000/svg" viewBox="0 0 50 50">
        <path
          d="M38,48a.6.6,0,0,1-.4-.1L25,42.1,13.4,47.9a1.39,1.39,0,0,1-.9,0l-12-6A1.05,1.05,0,0,1,0,41V3a1.19,1.19,0,0,1,.5-.9.91.91,0,0,1,1,0L13,7.9,24.6,2.1a1.39,1.39,0,0,1,.9,0L38,7.9,48.6,2.1a.91.91,0,0,1,1,0A1.27,1.27,0,0,1,50,3V41a1.05,1.05,0,0,1-.5.9l-11,6A.9.9,0,0,1,38,48ZM2,40.4l11,5.5,11.6-5.8a1.39,1.39,0,0,1,.9,0L38,45.9l10-5.5V4.7L38.5,9.9a.75.75,0,0,1-.9,0L25,4.1,13.4,9.9a1.39,1.39,0,0,1-.9,0L2,4.6Z"
          fill="#000"
        />
        <path
          d="M11,39a1.19,1.19,0,0,1-.9-.5,1.08,1.08,0,0,1,.3-1.4,4.05,4.05,0,0,1,.9-.5,1,1,0,0,1,1,1.8,2.18,2.18,0,0,0-.8.5A.75.75,0,0,1,11,39Zm24.1,0a1.06,1.06,0,0,1-1-.9A.9.9,0,0,1,35,37c.3,0,.6-.1.9-.1a1,1,0,0,1,.4,2c-.4.1-.7.1-1.1.2Zm-4-.3h-.2c-.3-.1-.7-.1-1-.2a1,1,0,0,1,.5-1.9c.3.1.6.1.9.2a1,1,0,0,1,.8,1.2A1,1,0,0,1,31.1,38.7Zm-4.8-1.3H26l-.9-.3a1.09,1.09,0,0,1-.7-1.2,1,1,0,0,1,1.2-.7c.3.1.6.2,1,.3a1,1,0,0,1,.6,1.3A1,1,0,0,1,26.3,37.4Zm13.4-.1a1.23,1.23,0,0,1-.8-.4,1,1,0,0,1,.3-1.4c.2-.2.5-.3.7-.5a1.06,1.06,0,0,1,1.4.1,1,1,0,0,1-.1,1.4c-.3.2-.6.5-.9.7C40.1,37.2,39.9,37.3,39.7,37.3Zm-24.2-.4a1.2,1.2,0,0,1-1-.7,1,1,0,0,1,.6-1.3c.3-.1.7-.2,1-.3a1,1,0,1,1,.5,1.9l-.9.3C15.7,36.9,15.6,36.9,15.5,36.9Zm5.9-.7h-.1c-.3,0-.6-.1-.9-.1a1,1,0,0,1,0-2,4.1,4.1,0,0,1,1.1.1,1.09,1.09,0,0,1,.9,1.1A1,1,0,0,1,21.4,36.2Zm21.7-2.6a.9.9,0,0,1-.5-.1,1.11,1.11,0,0,1-.4-1.4c.1-.3.3-.5.4-.8a1,1,0,1,1,1.8.8c-.2.3-.3.7-.5,1A.75.75,0,0,1,43.1,33.6Zm1.6-4.7h-.2a1,1,0,0,1-.8-1.2,2.77,2.77,0,0,0,.1-.9,1,1,0,0,1,2,.2,3,3,0,0,1-.2,1A.84.84,0,0,1,44.7,28.9Zm.2-4.9a1,1,0,0,1-1-.9c0-.3-.1-.6-.1-.9a1,1,0,0,1,2-.2c0,.3.1.7.1,1.1s-.3.8-1,.9ZM17,20.2a1,1,0,0,1-1-.8,1,1,0,0,1,.8-1.2c.3-.1.6-.1.8-.2a1,1,0,0,1,.7,1.9l-1.1.3ZM13.1,20a.37.37,0,0,1-.3-.1,4.67,4.67,0,0,1-1-.5,1,1,0,1,1,.9-1.7c.3.1.5.3.8.4a1,1,0,0,1,.6,1.3A1.33,1.33,0,0,1,13.1,20Zm30.6-.8a1,1,0,0,1-.9-.6c-.1-.3-.3-.5-.4-.8a1,1,0,1,1,1.7-1.1,3.13,3.13,0,0,1,.5,1,1,1,0,0,1-.5,1.3A.52.52,0,0,1,43.7,19.2ZM21.5,18.1a1.23,1.23,0,0,1-.8-.4,1,1,0,0,1,.3-1.4c.3-.2.5-.4.8-.6A1,1,0,1,1,23,17.3a5.55,5.55,0,0,0-.8.6A2.54,2.54,0,0,1,21.5,18.1Zm-12.4-1a.91.91,0,0,1-.7-.3,5.72,5.72,0,0,1-.7-.8,1,1,0,0,1,1.5-1.3c.2.2.4.5.6.7a1,1,0,0,1,0,1.4A1.33,1.33,0,0,1,9.1,17.1Zm31.4-1.7a1.42,1.42,0,0,1-.6-.2,5.58,5.58,0,0,0-.8-.5,1,1,0,1,1,1-1.8l.9.6a1,1,0,0,1,.3,1.4A.75.75,0,0,1,40.5,15.4Zm-15-.3a.91.91,0,0,1-.8-.4,1.08,1.08,0,0,1,.2-1.4,5.55,5.55,0,0,0,.8-.6,1,1,0,1,1,1.1,1.7c-.3.2-.5.4-.8.6A4.33,4.33,0,0,1,25.5,15.1Zm10.4-1.6h-.2c-.3-.1-.6-.1-.9-.2a1,1,0,1,1,.4-2c.3.1.7.1,1,.2a1.1,1.1,0,0,1,.8,1.2A1.17,1.17,0,0,1,35.9,13.5ZM6.1,13.1a1.19,1.19,0,0,1-.9-.5l-.1-.1a1.11,1.11,0,0,1,.4-1.4,1.11,1.11,0,0,1,1.4.4l.1.1A1.08,1.08,0,0,1,6.7,13,3.54,3.54,0,0,0,6.1,13.1Z"
          fill="#000"
        />
        <circle cx="11" cy="38" r="3" fill="#000" />
        <circle cx="40" cy="36" r="3" fill="#000" />
        <circle cx="22" cy="17" r="3" fill="#000" />
        <path
          d="M29.9,13.1a1.21,1.21,0,0,1-.8-1c-.1-.5.4-1,.9-1.1h1a1.08,1.08,0,0,1,1,1,1.08,1.08,0,0,1-1,1h-.9C30.1,13.1,30,13.1,29.9,13.1Z"
          fill="#000"
        />
      </svg>