<?xml version="1.0" encoding="UTF-8"?>
<svg xmlns="http://www.w3.org/2000/svg" viewBox="0 0 50 50">
<path d="M25,50A25,25,0,1,1,50,25,25,25,0,0,1,25,50ZM25,2A23,23,0,1,0,48,25,23,23,0,0,0,25,2Z"
fill="black"/>
<path d="M15.84,23a8.77,8.77,0,0,1-.24-3,8.85,8.85,0,0,1,.24-3.05,3.44,3.44,0,0,1,3.44-2.31,3.42,3.42,0,0,1,3.44,2.31A8.85,8.85,0,0,1,23,19.94a8.77,8.77,0,0,1-.24,3,3.42,3.42,0,0,1-3.44,2.31A3.44,3.44,0,0,1,15.84,23Zm5.06-.47a9.89,9.89,0,0,0,.15-2.58,9.77,9.77,0,0,0-.15-2.57,1.59,1.59,0,0,0-1.62-1.05,1.57,1.57,0,0,0-1.61,1.05,9.77,9.77,0,0,0-.15,2.57,9.89,9.89,0,0,0,.15,2.58,1.58,1.58,0,0,0,1.61,1A1.59,1.59,0,0,0,20.9,22.52Zm9-7.73a.49.49,0,0,1,.48-.3H31.8c.18,0,.24.15.15.3L20.12,35.21a.47.47,0,0,1-.45.3H18.23a.19.19,0,0,1-.18-.3ZM27,30.09A8.77,8.77,0,0,1,27.28,27a3.43,3.43,0,0,1,3.44-2.31A3.44,3.44,0,0,1,34.16,27a8.77,8.77,0,0,1,.24,3.05,8.81,8.81,0,0,1-.24,3.05,3.44,3.44,0,0,1-3.44,2.31,3.43,3.43,0,0,1-3.44-2.31A8.81,8.81,0,0,1,27,30.09Zm3.68,3.62a1.59,1.59,0,0,0,1.62-1.05,10.63,10.63,0,0,0,.14-2.57,10.63,10.63,0,0,0-.14-2.57,1.77,1.77,0,0,0-3.24,0A9.71,9.71,0,0,0,29,30.09a9.71,9.71,0,0,0,.15,2.57A1.59,1.59,0,0,0,30.72,33.71Z"
fill="black"/>
</svg>