<?xml version="1.0" encoding="UTF-8"?>
<svg xmlns="http://www.w3.org/2000/svg" viewBox="0 0 50 50">
    <path
        d="M49.9,40.2a3.84,3.84,0,0,1-.8,2.4c0,.1-5.3,7.3-8.2,7.3-8.6-.2-18.6-8.6-25.4-15.5S.4,17.6.1,9.2V9.1C.1,6.1,7.3.9,7.4.9c1.9-1.3,4-.9,4.9.3.6.8,6.1,9.2,6.8,10.1s.6,2.4-.2,3.9c-.4.8-1.9,3.3-2.6,4.6a67.37,67.37,0,0,0,6.6,7.6A51.35,51.35,0,0,0,30.5,34c1.1-.7,3.7-2.1,4.6-2.6a3.69,3.69,0,0,1,3.9-.2c1,.7,9.3,6.2,10.1,6.8A3,3,0,0,1,49.9,40.2ZM2.3,9c.2,7.8,8.1,17.2,14.8,23.9s16,14.5,23.8,14.7c1.1-.1,4.8-4,6.5-6.3a1.51,1.51,0,0,0,.2-1.8c-.7-.4-9-6-10-6.7a2.42,2.42,0,0,0-1.7.3c-1.1.7-5.1,2.9-5.1,2.9l-.6.3-.6-.3a53.74,53.74,0,0,1-8.5-7.3c-5.6-5.6-7.2-8.3-7.3-8.5l-.3-.6.3-.6s2.3-4,2.9-5a2.49,2.49,0,0,0,.3-1.7c-.6-.9-6.1-9.3-6.7-10a2.32,2.32,0,0,0-1.7.4C6.2,4.3,2.3,7.9,2.3,9Z"
        fill="black"
    />
</svg>