<?xml version="1.0" encoding="UTF-8"?>
<svg
  xmlns="http://www.w3.org/2000/svg"
  viewBox="0 0 50 50"
>
  <path
    d="M25,0a25,25,0,0,0-9.1,48.3,24.91,24.91,0,0,1,.1-7.2c.5-2,2.9-12.4,2.9-12.4a9.53,9.53,0,0,1-.7-3.7c0-3.5,2-6.1,4.5-6.1,2.1,0,3.2,1.6,3.2,3.5,0,2.1-1.4,5.3-2.1,8.3a3.63,3.63,0,0,0,3.7,4.5c4.4,0,7.9-4.7,7.9-11.4,0-6-4.3-10.2-10.4-10.2-7.1,0-11.3,5.3-11.3,10.8a9.5,9.5,0,0,0,1.9,5.7,1,1,0,0,1,.2.7c-.2.8-.6,2.5-.7,2.8-.1.5-.4.6-.8.3-3.1-1.5-5.1-6-5.1-9.7,0-7.9,5.7-15.1,16.5-15.1,8.7,0,15.4,6.2,15.4,14.4,0,8.6-5.4,15.5-13,15.5-2.5,0-4.9-1.3-5.7-2.9L20.8,42a30.93,30.93,0,0,1-3.1,6.6,25.46,25.46,0,0,0,7.4,1.1,25,25,0,0,0,25-25A25.1,25.1,0,0,0,25,0Z"
    fill="#000"
  />
</svg>