<?xml version="1.0" encoding="UTF-8"?>
<svg xmlns="http://www.w3.org/2000/svg" viewBox="0 0 50 50">
    <path
        d="M12.5,47a1.28,1.28,0,0,1-1.2-.6,1.49,1.49,0,0,1-.1-1.5c.2-.6,4.5-11.1,6.1-14.9H6.6L4,35c-.5.9-1,1-2,1H1.3a1.23,1.23,0,0,1-1-.5,1.21,1.21,0,0,1-.3-1C.1,34,1.7,26.4,2,25c-.6-2.9-1.9-9.1-2-9.6s.1-.9.3-1a1.16,1.16,0,0,1,1-.4H2a2.07,2.07,0,0,1,2,1l2.6,5H17.2c-1.6-3.8-5.9-14.2-6.1-14.9a1.4,1.4,0,0,1,.1-1.5A1.92,1.92,0,0,1,12.7,3c.4,0,1.5.1,2.4.2a2.5,2.5,0,0,1,1.8,1C17,4.5,27.2,17.5,29.1,20H43.7c4.4,0,6.3,3.6,6.3,5s-1.9,5-6.3,5H29.1C27.2,32.5,17,45.5,16.8,45.7a2.22,2.22,0,0,1-1.8,1c-.9.1-2,.2-2.4.2C12.6,47,12.6,47,12.5,47ZM5.4,28H20.2l-.6,1.4c-1.9,4.6-5.4,13-6.4,15.5a7.72,7.72,0,0,0,1.5-.2.52.52,0,0,0,.4-.2c.3-.3,8.4-10.7,12.6-16.1L28,28H43.6a4.25,4.25,0,0,0,4.3-3,4.25,4.25,0,0,0-4.3-3H28.2l-.3-.4c-4.3-5.4-12.4-15.8-12.6-16s-.2-.3-.5-.3c-.5-.1-1-.1-1.5-.2,1,2.6,4.5,10.9,6.4,15.5l.6,1.4H5.4L2.3,16H2.1c.3,1.7,1.2,6,1.8,8.8L4,25v.2S2.7,31.6,2.2,34h.1Z"
        fill="black"
    />
</svg>