<?xml version="1.0" encoding="UTF-8"?>
<svg xmlns="http://www.w3.org/2000/svg" viewBox="0 0 50 50">
    <path
        d="M25,50A25,25,0,1,1,50,25,25,25,0,0,1,25,50ZM25,2A23,23,0,1,0,48,25,23,23,0,0,0,25,2Z"
        fill="#000"
    />
    <path
        d="M23.5,30.4V28.9a4.47,4.47,0,0,1,1.1-3.2L27,22.4c1.3-1.7,1.7-2.5,1.7-3.8a3.21,3.21,0,0,0-3.5-3.3c-2,0-3.3,1.2-3.7,3.4,0,.2-.2.3-.4.3l-2.3-.4c-.2,0-.3-.2-.3-.4a6.4,6.4,0,0,1,6.7-5.7c3.9,0,6.5,2.5,6.5,6.1a7.72,7.72,0,0,1-1.8,4.7l-2.4,3.3a3.85,3.85,0,0,0-.9,2.7v1.1a.37.37,0,0,1-.4.4H23.8A.45.45,0,0,1,23.5,30.4Zm-.1,3.5a.37.37,0,0,1,.4-.4h2.7a.37.37,0,0,1,.4.4V37a.37.37,0,0,1-.4.4H23.8a.37.37,0,0,1-.4-.4Z"
        fill="#000"
    />
</svg>