<?xml version="1.0" encoding="UTF-8"?>
<svg xmlns="http://www.w3.org/2000/svg" viewBox="0 0 50 50">
   <path d="M48.67,40.23a4.57,4.57,0,0,1-1.52.24A8.57,8.57,0,0,1,42.23,39,1,1,0,0,0,41,39a8.87,8.87,0,0,1-9.84,0,1,1,0,0,0-1.24,0,8.87,8.87,0,0,1-9.84,0,1,1,0,0,0-1.24,0,8.55,8.55,0,0,1-4.92,1.49A8.57,8.57,0,0,1,9,39a1,1,0,0,0-1.23,0,8.57,8.57,0,0,1-4.92,1.49,10.08,10.08,0,0,1-1.7-.14A1,1,0,0,0,0,41.17a1,1,0,0,0,.84,1.14,12.62,12.62,0,0,0,2,.16A10.89,10.89,0,0,0,8.38,41a11,11,0,0,0,11.08,0,11,11,0,0,0,11.08,0,11,11,0,0,0,11.08,0,10.89,10.89,0,0,0,5.53,1.49,6.43,6.43,0,0,0,2.18-.35,1,1,0,0,0-.66-1.89Z" fill="black"/>
   <path d="M41.07,24.53h2a.94.94,0,0,0,.92-1V22.24s0-.38-.65-.38-.68.38-.68.38V23s-.09.39-.68.39-.66-.39-.66-.39v-.8s-.06-.38-.68-.38-.65.38-.65.38v1.31C40,24.47,41.07,24.53,41.07,24.53Z" fill="black"/>
   <path d="M5.22,36.16a9.83,9.83,0,0,1-2.37.31,10.08,10.08,0,0,1-1.7-.14A1,1,0,0,0,0,37.17a1,1,0,0,0,.84,1.14,12.62,12.62,0,0,0,2,.16A10.89,10.89,0,0,0,8.38,37a11,11,0,0,0,11.08,0,11,11,0,0,0,11.08,0,11,11,0,0,0,11.08,0,10.89,10.89,0,0,0,5.53,1.49,6.43,6.43,0,0,0,2.18-.35,1,1,0,0,0-.66-1.89,4.57,4.57,0,0,1-1.52.24A8.57,8.57,0,0,1,42.23,35,1,1,0,0,0,41,35a7.92,7.92,0,0,1-3.7,1.4,22.24,22.24,0,0,0,12.61-15.2,2.79,2.79,0,0,0-.44-2.43A3.47,3.47,0,0,0,47,17.53H39.32L30.75,7.87A1,1,0,0,0,30,7.53H22a1,1,0,0,0-.95.68l-1.77,5.32H15.47l-4.7-5.64A1,1,0,0,0,10,7.53H6A1,1,0,0,0,5.17,8a1,1,0,0,0-.1.93l1.81,4.51L4.11,17.53H3a3.12,3.12,0,0,0-3,3v5.54A12.34,12.34,0,0,0,5.22,36.16ZM22.72,9.53h6.83l3.55,4H21.39Zm-2.72,6H34.87l2.24,2.53-.36.54a1.17,1.17,0,0,0-.38-.07H6.25a.53.53,0,0,0-.18,0L6,18.33l1.87-2.8H20Zm15.46,5-2,3H7.72l-1-3ZM9.53,9.53l3.33,4H9a.93.93,0,0,0-.06-.37L7.48,9.53ZM2,20.53a1.13,1.13,0,0,1,1-1H4.28l2,6H34.54l4-6H47a1.66,1.66,0,0,1,.92.47,1,1,0,0,1,0,.74A20.25,20.25,0,0,1,32.69,35.82,6,6,0,0,1,31.16,35a1,1,0,0,0-1.24,0,8.87,8.87,0,0,1-9.84,0,1,1,0,0,0-1.24,0,8.55,8.55,0,0,1-4.92,1.49A8.57,8.57,0,0,1,9,35a1,1,0,0,0-1.23,0l-.34.22A10.43,10.43,0,0,1,2,26.07Z" fill="black"/>
</svg>