<?xml version="1.0" encoding="UTF-8"?>
<svg width="50px" height="50px" viewBox="0 0 50 50" version="1.1" xmlns="http://www.w3.org/2000/svg" xmlns:xlink="http://www.w3.org/1999/xlink">
    <!-- Generator: Sketch 54.1 (76490) - https://sketchapp.com -->
    <title>Twitter</title>
    <desc>Created with Sketch.</desc>
    <g id="Twitter" stroke="none" stroke-width="1" fill="none" fill-rule="evenodd">
        <path d="M43.7998,50.0002 L6.1998,50.0002 C2.7828,49.9832 0.0168,47.2182 -0.0002,43.8002 L-0.0002,6.2002 C0.0168,2.7832 2.7828,0.0172 6.1998,0.0002 L43.6998,0.0002 C47.1518,-0.0278 49.9728,2.7482 49.9998,6.2002 L49.9998,6.2002 L49.9998,43.7002 C50.0278,47.1512 47.2518,49.9732 43.8008,50.0002 L43.7998,50.0002 Z" id="Fill-1" fill="#1DA1F2"></path>
        <path d="M19.2002,37.7004 C31.0002,37.7004 37.4002,27.9004 37.4002,19.5004 L37.4002,18.7004 C38.6372,17.7794 39.7182,16.6654 40.5992,15.4004 C39.4122,15.8844 38.1702,16.2204 36.9002,16.4004 C38.2232,15.5624 39.2142,14.2894 39.7002,12.8004 C38.4292,13.5544 37.0452,14.0954 35.5992,14.4004 C34.3682,13.1264 32.6732,12.4044 30.9002,12.4004 C27.3742,12.4224 24.5222,15.2744 24.5002,18.8004 C24.5172,19.3054 24.5842,19.8074 24.7002,20.3004 C19.5482,20.0444 14.7482,17.6084 11.5002,13.6004 C10.9052,14.5604 10.5932,15.6704 10.6002,16.8004 C10.5812,18.9254 11.6342,20.9174 13.4002,22.1004 C12.3792,22.0964 11.3782,21.8204 10.5002,21.3004 L10.5002,21.4004 C10.4992,24.4404 12.6262,27.0674 15.6002,27.7004 C15.0412,27.8214 14.4712,27.8884 13.9002,27.9004 C13.4972,27.9164 13.0942,27.8834 12.7002,27.8004 C13.5682,30.4024 15.9582,32.1954 18.7002,32.3004 C16.4152,34.0904 13.6022,35.0744 10.7002,35.0994 C10.1982,35.1164 9.6952,35.0834 9.2002,35.0004 C12.2612,36.7084 15.6952,37.6354 19.2002,37.7004" id="Fill-4" fill="#FFFFFF"></path>
    </g>
</svg>