<?xml version="1.0" encoding="UTF-8"?>
<svg xmlns="http://www.w3.org/2000/svg" viewBox="0 0 50 50">
  <path
    d="M49,46.8H1a.89.89,0,0,1-.8-.5.91.91,0,0,1,0-1l24-41.6a1,1,0,0,1,1.7,0l24,41.6a.91.91,0,0,1,0,1A1.05,1.05,0,0,1,49,46.8Zm-46.4-2H47.3L25,6.1Z"
    fill="black"
  />
  <path
    d="M26.2,36.3a.37.37,0,0,1,.4.4v2.6a.37.37,0,0,1-.4.4H23.8a.37.37,0,0,1-.4-.4V36.7a.37.37,0,0,1,.4-.4Zm0-17.6a.37.37,0,0,1,.4.4V33.2a.37.37,0,0,1-.4.4H23.9a.37.37,0,0,1-.4-.4V19a.37.37,0,0,1,.4-.4h2.3Z"
    fill="black"
  />
</svg>