<?xml version="1.0" encoding="UTF-8"?>
 <svg
        xmlns="http://www.w3.org/2000/svg"
        viewBox="0 0 50 50"
      >
        <path
          d="M43.8,50H6.2A6.23,6.23,0,0,1,0,43.8V6.2A6.23,6.23,0,0,1,6.2,0H43.7A6.25,6.25,0,0,1,50,6.2V43.7A6.25,6.25,0,0,1,43.8,50Z"
          fill="red"
        />
        <path
          d="M41.38,16.76a4.15,4.15,0,0,0-3-3C35.66,13,25,13,25,13s-10.63,0-13.28.68a4.37,4.37,0,0,0-3.07,3.07A46.69,46.69,0,0,0,8,25a46.69,46.69,0,0,0,.68,8.24,4.18,4.18,0,0,0,3,3C14.4,37,25,37,25,37s10.63,0,13.29-.75a4.3,4.3,0,0,0,3-3A46.69,46.69,0,0,0,42,25,43.85,43.85,0,0,0,41.38,16.76Z"
          fill="#fff"
        />
        <polygon
          points="21.56 30.04 30.48 25 21.56 19.96 21.56 30.04"
          fill="red"
        />
      </svg>